<svg width="16" height="26" viewBox="0 0 16 26" fill="none" xmlns="http://www.w3.org/2000/svg">
<path fill-rule="evenodd" clip-rule="evenodd" d="M3.56557 2.59753C3.45097 2.55873 2.7289 2.21853 2.6202 2.27155C2.5115 2.32456 2.33502 3.10301 2.29504 3.21721C-0.577174 11.5706 3.8677 20.684 12.2186 23.5635C12.3332 23.6023 13.0553 23.9425 13.164 23.8895C13.2727 23.8365 13.4491 23.058 13.4891 22.9438L14.4646 20.1068C14.5033 19.9922 14.5176 20.2156 14.4646 20.1068C14.4115 19.998 13.6334 19.8209 13.5192 19.7809C12.3291 19.3705 11.9633 18.5846 11.0082 17.8573C10.9416 17.8067 10.1461 17.5393 10.0629 17.5313C9.97963 17.5232 10.1379 17.4944 10.0629 17.5313L7.19664 19.7163L6.57642 18.4446C4.36222 16.1402 3.29827 13.9778 2.85509 10.8148L2.23487 9.54314L5.72131 8.62977C5.79837 8.59311 5.67497 8.70145 5.72131 8.62977C5.76765 8.55808 6.04464 7.76948 6.04646 7.6841C6.06313 6.4528 5.67449 5.68473 6.07655 4.52114C6.11525 4.4065 6.45477 3.68427 6.4017 3.57548C6.34864 3.46668 6.51587 3.61556 6.4017 3.57548L3.56557 2.59753ZM1.34967 2.89123C1.47831 2.51918 1.64631 1.1724 1.99998 0.999904C2.35364 0.82741 3.51835 1.52419 3.89073 1.65187L6.72686 2.62982C7.09879 2.75879 7.49959 2.60182 7.67223 2.9558C7.84488 3.30977 8.09466 4.80061 7.9673 5.1731C7.59055 6.26881 7.00498 6.91896 6.99184 8.01009C6.98562 8.28408 6.81487 8.72535 6.66668 8.95575C6.5185 9.18615 6.9133 8.83663 6.66668 8.95575L4.12562 10.1951C4.58159 12.8869 6.00616 15.8088 7.84695 17.825L10.388 16.5856C10.6355 16.4648 10.114 16.5578 10.388 16.5856C10.6621 16.6134 11.115 16.7435 11.3334 16.9116C12.2273 17.5897 13.1087 17.5248 14.1695 17.8895C14.5415 18.0185 15.5625 19.1332 15.7351 19.4872C15.9078 19.8411 15.5373 20.0603 15.41 20.4328L14.4345 23.2698C14.3059 23.6419 14.1379 24.9886 13.7842 25.1611C13.4305 25.3336 12.2658 24.6369 11.8934 24.5092C3.00555 21.4445 -1.70724 11.7818 1.34967 2.89123Z" fill="#FCFCFC"/>
</svg>
