<svg width="40" height="45" viewBox="0 0 40 45" fill="none" xmlns="http://www.w3.org/2000/svg">
<path d="M21 21C19.6377 21.0053 18.0288 22.1045 17 23C15.9712 23.8955 15.1968 24.6482 15 26C14.8032 27.3518 15.2694 28.8469 16 30C16.7306 31.1531 17.6961 31.6044 19 32V36C19 36.4322 18.6953 36.6944 19 37C19.3047 37.3056 20.569 37 21 37C21.431 37 21.6953 37.3056 22 37C22.3047 36.6944 22 36.4322 22 36V32C23.3039 31.6044 24.2694 31.1531 25 30C25.7306 28.8469 26.1968 27.3518 26 26C25.8032 24.6482 25.0288 23.8955 24 23C22.9712 22.1045 22.3623 21.0053 21 21ZM21 29C20.5179 29 19.4008 29.2686 19 29C18.5992 28.7314 18.1845 28.4467 18 28C17.8155 27.5533 17.9059 26.4742 18 26C18.0941 25.5258 18.6591 25.3419 19 25C19.3409 24.6581 19.5272 24.0943 20 24C20.4728 23.9057 20.5546 24.815 21 25C21.4454 25.185 22.7322 25.598 23 26C23.2678 26.402 23 26.5165 23 27C23 27.6483 22.4571 28.5416 22 29C21.5429 29.4584 21.6465 29 21 29ZM37 15H29V9C29 6.62287 28.6761 4.68088 27 3C25.3239 1.31912 23.3704 0 21 0C18.6296 0 15.6761 1.31912 14 3C12.3239 4.68088 12 6.62287 12 9V15H4C3.13805 15 2.60949 15.3888 2 16C1.39051 16.6112 1 17.1356 1 18V41C1 41.8644 1.39051 42.3888 2 43C2.60949 43.6112 3.13805 44 4 44H37C37.862 44 38.3905 43.6112 39 43C39.6095 42.3888 40 41.8644 40 41V18C40 17.1356 39.6095 16.6112 39 16C38.3905 15.3888 37.862 15 37 15ZM15 9C15 7.48728 14.9334 6.06965 16 5C17.0666 3.93035 19.4916 3 21 3C22.5084 3 23.9334 3.93035 25 5C26.0666 6.06965 26 7.48728 26 9V15H15V9ZM37 41H4V18H37V41Z" fill="#FCFCFC"/>
</svg>
