<svg width="40" height="45" viewBox="0 0 40 45" fill="none" xmlns="http://www.w3.org/2000/svg">
<g clip-path="url(#clip0_202_38)">
<path d="M38.9998 0.999894C38.6406 0.610775 38.4678 0.102242 37.9998 -0.000106439C37.5317 -0.102455 36.4432 -0.213733 35.9998 -0.000106439L1.99977 16.9999C1.47346 17.2549 0.297635 18.4002 -0.000231847 18.9999C-0.298099 19.5995 -0.0505756 20.2967 -0.000231847 20.9999C0.0501119 21.703 0.621457 21.476 0.999768 21.9999C1.37808 22.5238 1.44561 22.8659 1.99977 22.9999L10.9998 25.9999V39.9999C11.0004 40.641 11.7155 41.4665 11.9998 41.9999C12.2841 42.5333 12.5269 42.7526 12.9998 42.9999C13.3186 43.1624 13.6555 42.9935 13.9998 42.9999C14.3417 43.0025 14.6839 43.1635 14.9998 42.9999C15.3157 42.8362 15.7594 42.3041 15.9998 41.9999L20.9998 35.9999L28.9998 43.9999C29.4694 44.5266 29.369 45.003 29.9998 44.9999C30.2715 45.0027 30.7427 45.1104 30.9998 44.9999C31.4288 44.8293 31.6964 44.416 31.9998 43.9999C32.3031 43.5838 32.9035 42.55 32.9998 41.9999L39.9998 3.99989C40.1045 3.42421 40.1471 2.5608 39.9998 1.99989C39.8525 1.43899 39.357 1.38581 38.9998 0.999894ZM1.99977 19.9999C1.98677 19.9019 1.95892 20.0851 1.99977 19.9999C2.04062 19.9147 2.92454 20.0317 2.99977 19.9999L31.9998 5.99989L11.9998 22.9999L2.99977 20.9999C2.91765 20.9884 2.05466 21.0771 1.99977 20.9999C1.94487 20.9226 1.99926 20.1032 1.99977 19.9999ZM13.9998 39.9999C13.9482 40.0675 14.0732 39.9832 13.9998 39.9999C13.9263 40.0166 14.067 40.0404 13.9998 39.9999C14.0393 40.0741 13.9344 39.9642 13.9998 39.9999C14.0009 40.089 13.9602 39.9257 13.9998 39.9999V27.9999L18.9998 33.9999L13.9998 39.9999ZM30.9998 41.9999C30.9871 42.0805 31.0432 41.9382 30.9998 41.9999C30.9564 42.0616 30.0621 41.9739 29.9998 41.9999C29.9374 42.0259 30.0641 42.0167 29.9998 41.9999C29.9355 41.9831 30.0486 42.0549 29.9998 41.9999L13.9998 24.9999L37.9998 3.99989L30.9998 41.9999Z" fill="#FCFCFC"/>
</g>
<defs>
<clipPath id="clip0_202_38">
<rect width="40" height="45" fill="white"/>
</clipPath>
</defs>
</svg>
