<svg width="14" height="19" viewBox="0 0 14 19" fill="none" xmlns="http://www.w3.org/2000/svg">
<g clip-path="url(#clip0_1_144)">
<path d="M7.00002 2C6.43164 2 5.47261 2.6316 5.00002 3C4.52743 3.3684 4.21753 3.38737 4.00002 4C3.78251 4.61263 3.88913 5.34964 4.00002 6C4.1109 6.65036 4.59812 7.53111 5.00002 8C5.40192 8.46889 5.44256 8.87063 6.00002 9C6.55747 9.12937 7.47491 9.25376 8.00002 9C8.52513 8.74624 8.68425 7.55135 9.00002 7C9.31579 6.44865 10 5.66311 10 5C10 4.1108 9.53895 3.62876 9.00002 3C8.46108 2.37124 7.76219 2 7.00002 2ZM7.00002 8C6.63003 8 6.30765 7.23981 6.00002 7C5.69238 6.76019 5.14161 6.3988 5.00002 6C4.85843 5.6012 4.92784 5.42336 5.00002 5C5.0722 4.57664 5.7384 4.30523 6.00002 4C6.26164 3.69477 6.63714 3.08421 7.00002 3C7.3629 2.91579 7.65819 2.83481 8.00002 3C8.34184 3.16519 8.79446 3.64109 9.00002 4C9.20557 4.35891 9.00002 4.56835 9.00002 5C8.99869 5.57782 8.3507 6.59197 8.00002 7C7.64934 7.40803 7.49529 8 7.00002 8Z" fill="#F4AD4E"/>
<path d="M7 5.79145e-10C5.14988 0.00151765 3.31101 0.717888 2 2C0.688991 3.28211 0.0094147 5.18298 0 7C0 9.72429 1.85957 12.3374 3 14C4.13466 15.6151 5.70488 16.5058 7 18V19V18C8.29496 16.5057 9.86517 15.615 11 14C12.1345 12.3374 14 9.72429 14 7C13.9906 5.18197 13.3123 3.28228 12 2C10.6877 0.717723 8.85114 -2.35421e-05 7 5.79145e-10ZM10 13C8.97836 14.5051 7.73059 16.1658 7 17C6.29911 16.1658 5.02164 14.5051 4 13C2.94866 11.4599 1 9.36844 1 7C1 6.25078 1.70807 5.69219 2 5C2.29193 4.30781 2.46058 3.52978 3 3C3.53942 2.47022 4.29521 2.28672 5 2C5.70479 1.71328 6.23714 1 7 1C7.76286 1 8.29521 1.71328 9 2C9.70479 2.28672 10.4606 2.47022 11 3C11.5394 3.52978 11.7081 4.30781 12 5C12.2919 5.69219 13 6.25078 13 7C13 9.39177 11.0513 11.4833 10 13Z" fill="#F4AD4E"/>
</g>
<defs>
<clipPath id="clip0_1_144">
<rect width="14" height="19" fill="white"/>
</clipPath>
</defs>
</svg>
