<svg width="78" height="64" viewBox="0 0 78 64" fill="none" xmlns="http://www.w3.org/2000/svg">
<path d="M6 15H36L36 2.99998C36.0001 2.53158 36.6703 2.38942 37 1.99998C37.3297 1.61055 37.4519 1.17922 38 0.999985C38.5481 0.820747 39.4181 0.90863 40 0.999985C40.5819 1.09134 40.5804 1.66882 41 1.99998L77 30C77.5624 30.4442 78 31.3719 78 32C78 32.6281 77.5624 33.5558 77 34L41 62C40.5804 62.3311 40.5819 62.9086 40 63C39.4181 63.0913 38.5481 63.1792 38 63C37.4519 62.8207 37.3297 62.3894 37 62C36.6703 61.6106 36.0001 61.4684 36 61V49H6C4.40919 48.9987 3.12487 47.8881 2 47C0.875126 46.1118 0.00158843 45.256 0 44L0 20C0.0023805 18.7442 0.875297 17.888 2 17C3.1247 16.112 4.40943 15.0019 6 15ZM71 32L42 8.99998V20H6L6 44H42V55L71 32Z" fill="#FCFCFC"/>
</svg>
