<svg width="20" height="20" viewBox="0 0 20 20" fill="none" xmlns="http://www.w3.org/2000/svg">
<path d="M9.99977 4C9.4314 4 8.47236 4.68423 7.99977 5C7.52719 5.31577 7.21728 5.47489 6.99977 6C6.78227 6.52511 6.88889 7.44255 6.99977 8C7.11066 8.55745 7.59787 8.5981 7.99977 9C8.40168 9.4019 8.44232 9.88912 8.99977 10C9.55723 10.1109 10.4747 10.2175 10.9998 10C11.5249 9.78249 11.684 9.47259 11.9998 9C12.3155 8.52741 12.9998 7.56838 12.9998 7C12.9998 6.23783 12.5387 5.53893 11.9998 5C11.4608 4.46107 10.7619 4 9.99977 4ZM9.99977 9C9.62978 9 9.30741 9.20556 8.99977 9C8.69214 8.79444 8.14136 8.34183 7.99977 8C7.85819 7.65817 7.92759 7.36288 7.99977 7C8.07196 6.63712 8.73815 6.26162 8.99977 6C9.2614 5.73838 9.63689 5.07218 9.99977 5C10.3627 4.92782 10.6579 4.85841 10.9998 5C11.3416 5.14159 11.7942 5.69236 11.9998 6C12.2053 6.30764 11.9998 6.63001 11.9998 7C11.9984 7.49527 11.3505 7.65026 10.9998 8C10.6491 8.34974 10.495 9 9.99977 9Z" fill="#FCFCFC"/>
<path d="M9 1C7.28204 1.00144 6.21737 1.78537 5 3C3.78263 4.21463 3.00874 5.27861 3 7C3 9.5809 4.94103 12.4249 6 14C7.05361 15.5301 7.79739 17.5845 9 19H10C11.2025 17.5844 11.9462 15.53 13 14H14C15.0535 12.4249 16 9.5809 16 7C15.9913 5.27765 15.2186 4.21479 14 3C12.7814 1.78521 10.7189 0.999978 9 1ZM13 13H12C11.0513 14.4259 9.6784 16.2097 9 17C8.34917 16.2097 7.94866 14.4259 7 13H6C5.02376 11.541 4 9.24378 4 7C4 6.29021 4.72892 5.65576 5 5C5.27108 4.34424 5.49911 4.5019 6 4C6.50089 3.4981 6.34555 2.27163 7 2C7.65445 1.72837 8.29163 2 9 2C9.70837 2 11.3456 1.72837 12 2C12.6544 2.27163 12.4991 3.4981 13 4C13.5009 4.5019 13.7289 4.34424 14 5C14.2711 5.65576 15 6.29021 15 7C15 9.26589 13.9762 11.5631 13 13Z" fill="#FCFCFC"/>
</svg>
